<?xml version="1.0" encoding="iso-8859-1"?>
<!-- Uploaded to: SVG Repo, www.svgrepo.com, Generator: SVG Repo Mixer Tools -->
<svg fill="white" height="800px" width="800px" version="1.1" id="Layer_1" xmlns="http://www.w3.org/2000/svg" xmlns:xlink="http://www.w3.org/1999/xlink" 
	 viewBox="0 0 512 512" xml:space="preserve">
<g>
	<g>
		<path d="M509.013,162.369L349.631,2.987C347.717,1.075,345.124,0,342.418,0H169.582c-2.705,0-5.298,1.075-7.212,2.987
			L2.987,162.369C1.075,164.283,0,166.876,0,169.582v172.836c0,2.705,1.075,5.299,2.987,7.212L162.37,509.013
			c1.913,1.912,4.507,2.987,7.212,2.987h172.836c2.705,0,5.299-1.075,7.212-2.987L509.013,349.63
			c1.912-1.913,2.987-4.507,2.987-7.212V169.582C512,166.876,510.925,164.283,509.013,162.369z M346.665,28.87L483.13,165.335
			l-110.226,38.753l-64.992-64.992L346.665,28.87z M360.032,220.064v71.873l-68.096,68.095h-71.873l-68.095-68.096v-71.873
			l68.096-68.095h71.873L360.032,220.064z M328.022,20.398L288.936,131.57h-65.873L183.978,20.398H328.022z M165.335,28.87
			l38.753,110.226l-64.992,64.992L28.87,165.335L165.335,28.87z M20.398,183.978l111.171,39.085v65.873L20.398,328.022V183.978z
			 M165.335,483.13L28.87,346.665l110.226-38.753l64.992,64.992L165.335,483.13z M183.978,491.602l39.085-111.171h65.873
			l39.085,111.171H183.978z M346.665,483.13l-38.753-110.226l64.992-64.992l110.226,38.753L346.665,483.13z M491.602,328.022
			L380.43,288.936v-65.873l111.171-39.085V328.022z"/>
	</g>
</g>
<g>
	<g>
		<path d="M344.296,274.795c-3.984-3.982-10.44-3.982-14.424,0.001l-2.55,2.55c-3.983,3.983-3.983,10.441,0,14.425
			c1.992,1.99,4.601,2.986,7.212,2.986s5.22-0.996,7.212-2.987l2.55-2.55C348.278,285.237,348.278,278.779,344.296,274.795z"/>
	</g>
</g>
<g>
	<g>
		<path d="M317.268,301.823c-3.984-3.982-10.44-3.982-14.424,0.001l-30.598,30.598c-3.983,3.983-3.983,10.441,0,14.425
			c1.992,1.99,4.601,2.986,7.212,2.986c2.611,0,5.22-0.996,7.212-2.987l30.598-30.598
			C321.25,312.265,321.25,305.807,317.268,301.823z"/>
	</g>
</g>
</svg>